?xml version="1.0" standalone="no"?>
<!DOCTYPE svg PUBLIC "-//W3C//DTD SVG 20010904//EN"
 "http://www.w3.org/TR/2001/REC-SVG-20010904/DTD/svg10.dtd">
<svg version="1.0" xmlns="http://www.w3.org/2000/svg"
 width="512.000000pt" height="512.000000pt" viewBox="0 0 512.000000 512.000000"
 preserveAspectRatio="xMidYMid meet">

<g transform="translate(0.000000,512.000000) scale(0.100000,-0.100000)"
fill="#000000" stroke="none">
<path d="M42 4343 c-17 -6 -42 -57 -42 -83 0 -12 13 -35 29 -51 l29 -29 226 0
226 0 0 -215 0 -215 -145 0 c-142 0 -147 -1 -170 -25 -32 -31 -32 -75 -1 -112
24 -28 24 -28 170 -31 l146 -4 0 -84 0 -84 -139 0 c-77 0 -147 -3 -156 -6 -42
-16 -45 -45 -45 -424 l0 -362 29 -29 29 -29 141 0 141 0 0 -85 0 -85 -141 0
-141 0 -29 -29 c-31 -31 -36 -59 -17 -94 22 -43 37 -46 186 -47 l142 0 0 -84
0 -85 -146 -3 c-146 -3 -146 -3 -170 -31 l-24 -28 0 -365 c0 -243 4 -372 11
-386 19 -36 69 -48 204 -48 l125 0 0 -179 c0 -178 0 -180 26 -210 31 -37 79
-42 115 -12 24 19 24 20 29 298 l5 278 210 0 210 0 5 -278 c5 -278 5 -279 29
-298 22 -18 53 -19 996 -19 l973 0 26 31 26 31 0 269 0 269 168 -2 167 -3 5
-278 c5 -278 5 -279 29 -298 22 -18 44 -19 396 -19 352 0 374 1 396 19 24 19
24 20 29 298 l5 278 190 5 c217 7 259 17 363 94 100 74 168 177 197 297 22 94
22 1672 0 1767 -42 176 -169 315 -344 375 l-66 22 -2007 3 -2008 2 0 186 c0
183 0 185 -25 209 l-24 25 -288 -1 c-158 0 -294 -3 -301 -6z m1943 -782 c345
-71 619 -334 717 -688 18 -65 22 -104 21 -233 0 -138 -3 -164 -27 -243 -100
-331 -343 -570 -670 -660 -69 -19 -105 -22 -241 -21 -143 1 -169 4 -248 28
-338 102 -588 369 -663 709 -23 100 -22 281 0 382 40 179 120 329 245 458 132
138 298 231 486 272 90 20 274 18 380 -4z m2090 -8 c167 -47 313 -132 428
-248 293 -295 358 -744 161 -1104 -126 -230 -338 -395 -600 -467 -92 -25 -293
-30 -393 -10 -127 26 -241 72 -338 136 -203 134 -347 335 -405 566 -31 124
-31 312 0 438 87 349 368 622 722 701 93 21 331 14 425 -12z m-3565 -568 l0
-255 -85 0 -85 0 0 255 0 255 85 0 85 0 0 -255z m0 -1360 l0 -255 -85 0 -85 0
0 255 0 255 85 0 85 0 0 -255z m2478 -472 l2 -213 -130 0 -130 0 0 100 c0 94
-2 103 -25 125 -33 34 -87 34 -120 0 -23 -22 -25 -31 -25 -125 l0 -100 -84 0
-84 0 -4 106 c-3 97 -5 107 -27 125 -33 27 -86 25 -116 -6 -23 -22 -25 -31
-25 -125 l0 -100 -85 0 -85 0 0 90 c0 129 -19 160 -95 160 -24 0 -39 -7 -54
-26 -18 -23 -21 -41 -21 -125 l0 -99 -85 0 -85 0 0 84 c0 92 -13 141 -40 156
-32 17 -82 11 -107 -12 -21 -20 -23 -30 -23 -125 l0 -103 -130 0 -130 0 0 215
0 215 853 -2 852 -3 3 -212z m1192 2 l0 -215 -85 0 -85 0 0 100 c0 94 -2 103
-25 125 -33 34 -87 34 -120 0 -23 -22 -25 -31 -25 -125 l0 -100 -85 0 -85 0 0
215 0 215 255 0 255 0 0 -215z"/>
<path d="M1645 3399 c-88 -21 -115 -30 -115 -39 0 -6 5 -10 11 -10 23 0 132
-74 183 -124 62 -60 102 -121 126 -191 14 -38 26 -54 51 -67 49 -24 56 -22 70
20 32 94 2 267 -63 367 l-33 50 -95 2 c-52 1 -113 -3 -135 -8z"/>
<path d="M2110 3336 c0 -2 7 -22 15 -45 44 -125 38 -295 -14 -406 l-27 -60 18
-43 19 -42 41 21 c91 46 181 172 213 298 16 59 16 62 -5 91 -43 61 -260 216
-260 186z"/>
<path d="M1237 3171 c-54 -58 -152 -199 -144 -208 2 -1 32 7 67 18 133 42 320
32 409 -22 31 -19 39 -20 74 -8 21 7 41 19 44 26 8 21 -57 112 -109 153 -74
59 -192 109 -259 110 -9 0 -46 -31 -82 -69z"/>
<path d="M2483 2868 c-33 -69 -109 -162 -168 -208 -48 -37 -152 -89 -180 -90
-6 0 -17 -20 -26 -45 l-16 -44 31 -11 c117 -41 290 -8 405 78 l34 25 -6 101
c-5 95 -29 212 -46 229 -4 4 -16 -12 -28 -35z"/>
<path d="M1233 2826 c-56 -14 -144 -55 -183 -85 -24 -19 -25 -25 -23 -108 1
-83 23 -206 42 -240 6 -12 16 -1 42 48 64 120 199 239 303 269 34 9 47 19 54
39 6 14 13 33 16 42 16 37 -150 61 -251 35z"/>
<path d="M1737 2806 c-50 -18 -76 -42 -98 -91 -24 -51 -23 -89 0 -142 60 -131
259 -125 310 10 15 40 14 103 -4 136 -20 39 -69 78 -113 91 -46 12 -48 12 -95
-4z"/>
<path d="M1423 2529 c-95 -47 -206 -211 -219 -325 l-6 -49 70 -67 c59 -55 190
-144 199 -134 2 1 -6 38 -17 81 -35 136 -24 279 29 388 21 43 21 45 3 85 l-18
41 -41 -20z"/>
<path d="M1923 2335 c-18 -9 -33 -19 -33 -23 0 -16 58 -97 91 -129 52 -49 143
-99 214 -118 57 -16 69 -16 92 -4 60 32 239 286 187 265 -10 -4 -55 -17 -99
-28 -108 -28 -224 -22 -315 17 -84 35 -98 37 -137 20z"/>
<path d="M1610 2289 c-27 -110 1 -252 70 -359 l32 -50 87 0 c47 0 106 5 131
11 85 19 120 30 120 37 0 4 -25 20 -55 36 -69 36 -173 131 -214 195 -18 27
-40 73 -50 101 -15 42 -25 56 -51 66 -50 22 -57 18 -70 -37z"/>
<path d="M3656 3389 c-44 -11 -81 -21 -84 -23 -2 -2 25 -19 60 -38 123 -65
238 -198 277 -319 8 -24 19 -39 34 -42 12 -3 31 -8 43 -12 18 -6 23 0 34 39
29 103 -1 261 -70 369 l-30 47 -92 -1 c-56 0 -125 -8 -172 -20z"/>
<path d="M4164 3318 c30 -104 36 -144 36 -223 0 -96 -17 -175 -51 -234 -19
-32 -19 -35 -2 -72 25 -57 51 -51 141 35 74 70 121 159 141 263 8 42 7 43 -47
99 -50 52 -194 154 -216 154 -4 0 -5 -10 -2 -22z"/>
<path d="M3315 3203 c-56 -52 -107 -117 -146 -187 -28 -51 -30 -59 -13 -52 10
4 52 16 93 27 125 32 251 22 359 -28 47 -22 57 -24 85 -12 48 19 50 23 28 66
-44 87 -169 178 -285 209 -72 19 -76 18 -121 -23z"/>
<path d="M4522 2850 c-65 -119 -204 -241 -304 -269 -37 -11 -47 -19 -59 -49
-8 -20 -15 -40 -17 -44 -5 -11 98 -38 148 -38 92 0 237 52 295 106 27 25 28
27 22 114 -5 83 -32 217 -46 232 -3 4 -21 -20 -39 -52z"/>
<path d="M3276 2824 c-73 -18 -173 -70 -194 -101 -24 -37 -5 -226 34 -332 3
-9 22 15 48 60 73 124 192 227 302 259 33 10 43 19 55 49 8 20 15 39 17 43 6
12 -100 38 -152 37 -28 0 -77 -7 -110 -15z"/>
<path d="M3786 2805 c-79 -28 -123 -97 -113 -181 9 -84 80 -146 167 -146 87 0
158 62 167 146 10 86 -41 162 -124 185 -47 13 -49 13 -97 -4z"/>
<path d="M3447 2513 c-104 -72 -171 -177 -196 -311 l-8 -42 77 -73 c42 -40
105 -88 140 -106 62 -33 63 -34 56 -10 -30 106 -36 145 -36 224 0 94 16 168
51 238 19 37 19 37 -1 77 -11 22 -22 40 -24 40 -2 0 -29 -17 -59 -37z"/>
<path d="M3973 2335 c-18 -9 -33 -17 -33 -20 0 -22 47 -89 94 -133 61 -58 150
-105 235 -124 l54 -12 76 81 c78 82 161 213 127 200 -82 -32 -140 -42 -241
-42 -99 0 -117 3 -175 29 -84 36 -98 38 -137 21z"/>
<path d="M3660 2298 c-17 -62 -8 -201 19 -268 11 -31 35 -78 52 -104 l30 -48
112 5 c101 4 227 30 227 46 0 3 -26 19 -58 36 -87 46 -195 153 -237 238 -19
38 -35 78 -35 89 0 18 -21 30 -75 44 -21 5 -25 1 -35 -38z"/>
</g>
</svg>
